<mxfile host="app.diagrams.net" modified="2021-01-05T10:31:43.267Z" agent="5.0 (Macintosh; Intel Mac OS X 10_15_6) AppleWebKit/537.36 (KHTML, like Gecko) Chrome/87.0.4280.88 Safari/537.36" etag="8aOjwGKmkPEWm_qrDBDG" version="14.1.8" type="github">
  <diagram id="ClVdLuZeO7hKk8MF8aoa" name="第 1 页">
    <mxGraphModel dx="1507" dy="715" grid="1" gridSize="10" guides="1" tooltips="1" connect="1" arrows="1" fold="1" page="1" pageScale="1" pageWidth="827" pageHeight="1169" math="0" shadow="0">
      <root>
        <mxCell id="0" />
        <mxCell id="1" parent="0" />
        <mxCell id="kdWx9FdOF3ZPmJTh41ik-1" value="&lt;font color=&quot;#707070&quot;&gt;/document/doc_page/&lt;/font&gt;&lt;font color=&quot;#3399ff&quot;&gt;:pageId&lt;/font&gt;&lt;font color=&quot;#707070&quot;&gt;/&lt;/font&gt;&lt;font color=&quot;#b266ff&quot;&gt;bread-crumb&lt;/font&gt;&lt;font color=&quot;#ff33ff&quot;&gt;?a=2&amp;amp;b=3&amp;amp;c=4&lt;/font&gt;" style="text;html=1;resizable=0;autosize=1;align=left;verticalAlign=middle;points=[];fillColor=none;strokeColor=none;rounded=0;fontSize=16;" parent="1" vertex="1">
          <mxGeometry x="130" y="70" width="430" height="20" as="geometry" />
        </mxCell>
        <mxCell id="kdWx9FdOF3ZPmJTh41ik-2" value="&lt;font&gt;path&lt;/font&gt;" style="text;html=1;resizable=0;autosize=1;align=center;verticalAlign=middle;points=[];fillColor=none;strokeColor=none;rounded=0;fontSize=16;fontStyle=1;" parent="1" vertex="1">
          <mxGeometry x="60" y="70" width="50" height="20" as="geometry" />
        </mxCell>
        <mxCell id="kdWx9FdOF3ZPmJTh41ik-3" value="&lt;font&gt;meta&lt;/font&gt;" style="text;html=1;resizable=0;autosize=1;align=center;verticalAlign=middle;points=[];fillColor=none;strokeColor=none;rounded=0;fontSize=16;fontStyle=1;" parent="1" vertex="1">
          <mxGeometry x="60" y="100" width="50" height="20" as="geometry" />
        </mxCell>
        <mxCell id="kdWx9FdOF3ZPmJTh41ik-4" value="&lt;meta charset=&quot;utf-8&quot;&gt;&lt;span style=&quot;color: rgb(112, 112, 112); font-family: helvetica; font-size: 16px; font-style: normal; font-weight: 400; letter-spacing: normal; text-indent: 0px; text-transform: none; word-spacing: 0px; background-color: rgb(248, 249, 250); display: inline; float: none;&quot;&gt;{&lt;/span&gt;" style="text;whiteSpace=wrap;html=1;fontSize=16;fontColor=#000000;align=left;" parent="1" vertex="1">
          <mxGeometry x="130" y="95" width="30" height="30" as="geometry" />
        </mxCell>
        <mxCell id="kdWx9FdOF3ZPmJTh41ik-5" value="&lt;span style=&quot;color: rgb(112, 112, 112); font-family: helvetica; font-size: 16px; font-style: normal; font-weight: 400; letter-spacing: normal; text-indent: 0px; text-transform: none; word-spacing: 0px; background-color: rgb(248, 249, 250); display: inline; float: none;&quot;&gt;breadId:&amp;nbsp; &amp;nbsp;&#39;483754357436572-324233254344343-234324255465463&#39;&lt;/span&gt;" style="text;whiteSpace=wrap;html=1;fontSize=16;fontColor=#000000;align=left;" parent="1" vertex="1">
          <mxGeometry x="150" y="125" width="510" height="30" as="geometry" />
        </mxCell>
        <mxCell id="kdWx9FdOF3ZPmJTh41ik-6" value="&lt;meta charset=&quot;utf-8&quot;&gt;&lt;span style=&quot;color: rgb(112, 112, 112); font-family: helvetica; font-size: 16px; font-style: normal; font-weight: 400; letter-spacing: normal; text-indent: 0px; text-transform: none; word-spacing: 0px; background-color: rgb(248, 249, 250); display: inline; float: none;&quot;&gt;}&lt;/span&gt;" style="text;whiteSpace=wrap;html=1;fontSize=16;fontColor=#000000;align=left;" parent="1" vertex="1">
          <mxGeometry x="130" y="150" width="30" height="30" as="geometry" />
        </mxCell>
        <mxCell id="kdWx9FdOF3ZPmJTh41ik-7" value="&lt;font&gt;component&lt;/font&gt;" style="text;html=1;resizable=0;autosize=1;align=center;verticalAlign=middle;points=[];fillColor=none;strokeColor=none;rounded=0;fontSize=16;fontStyle=1;" parent="1" vertex="1">
          <mxGeometry x="10" y="210" width="100" height="20" as="geometry" />
        </mxCell>
        <mxCell id="kdWx9FdOF3ZPmJTh41ik-8" value="&lt;font color=&quot;#707070&quot;&gt;doc_page.vue&lt;/font&gt;" style="text;html=1;resizable=0;autosize=1;align=left;verticalAlign=middle;points=[];fillColor=none;strokeColor=none;rounded=0;fontSize=16;" parent="1" vertex="1">
          <mxGeometry x="130" y="210" width="120" height="20" as="geometry" />
        </mxCell>
        <mxCell id="kdWx9FdOF3ZPmJTh41ik-9" value="&lt;font&gt;param&lt;/font&gt;" style="text;html=1;resizable=0;autosize=1;align=center;verticalAlign=middle;points=[];fillColor=none;strokeColor=none;rounded=0;fontSize=16;fontStyle=1;" parent="1" vertex="1">
          <mxGeometry x="50" y="255" width="60" height="20" as="geometry" />
        </mxCell>
        <mxCell id="kdWx9FdOF3ZPmJTh41ik-10" value="&lt;meta charset=&quot;utf-8&quot;&gt;&lt;span style=&quot;color: rgb(112, 112, 112); font-family: helvetica; font-size: 16px; font-style: normal; font-weight: 400; letter-spacing: normal; text-indent: 0px; text-transform: none; word-spacing: 0px; background-color: rgb(248, 249, 250); display: inline; float: none;&quot;&gt;{&lt;/span&gt;" style="text;whiteSpace=wrap;html=1;fontSize=16;fontColor=#000000;align=left;" parent="1" vertex="1">
          <mxGeometry x="130" y="250" width="30" height="30" as="geometry" />
        </mxCell>
        <mxCell id="kdWx9FdOF3ZPmJTh41ik-11" value="&lt;span style=&quot;color: rgb(112 , 112 , 112) ; font-family: &amp;#34;helvetica&amp;#34; ; font-size: 16px ; font-style: normal ; font-weight: 400 ; letter-spacing: normal ; text-indent: 0px ; text-transform: none ; word-spacing: 0px ; background-color: rgb(248 , 249 , 250) ; display: inline ; float: none&quot;&gt;id:&amp;nbsp;&lt;/span&gt;&lt;span style=&quot;color: rgb(112 , 112 , 112) ; font-family: &amp;#34;helvetica&amp;#34;&quot;&gt;234324255465463&lt;/span&gt;" style="text;whiteSpace=wrap;html=1;fontSize=16;fontColor=#000000;align=left;" parent="1" vertex="1">
          <mxGeometry x="150" y="280" width="510" height="30" as="geometry" />
        </mxCell>
        <mxCell id="kdWx9FdOF3ZPmJTh41ik-12" value="&lt;meta charset=&quot;utf-8&quot;&gt;&lt;span style=&quot;color: rgb(112, 112, 112); font-family: helvetica; font-size: 16px; font-style: normal; font-weight: 400; letter-spacing: normal; text-indent: 0px; text-transform: none; word-spacing: 0px; background-color: rgb(248, 249, 250); display: inline; float: none;&quot;&gt;}&lt;/span&gt;" style="text;whiteSpace=wrap;html=1;fontSize=16;fontColor=#000000;align=left;" parent="1" vertex="1">
          <mxGeometry x="130" y="305" width="30" height="30" as="geometry" />
        </mxCell>
      </root>
    </mxGraphModel>
  </diagram>
</mxfile>
